<?xml version="1.0" encoding="utf-8"?>
<!-- Generator: Adobe Illustrator 21.0.0, SVG Export Plug-In . SVG Version: 6.00 Build 0)  -->
<svg version="1.1" id="Layer_1" xmlns="http://www.w3.org/2000/svg" xmlns:xlink="http://www.w3.org/1999/xlink" x="0px" y="0px"
	 viewBox="0 0 320 160" style="enable-background:new 0 0 320 160;" xml:space="preserve">
<style type="text/css">
	.st0{fill:#ECECEC;stroke:#000000;stroke-width:2.5;stroke-linecap:round;stroke-linejoin:round;}
	.st1{stroke:#000000;stroke-width:0.1125;}
</style>
<g transform="translate(-521.41 -105.25)">
	<path class="st0" d="M681.1,141.5c0,0-5.4-5.8-12.5-4.5c-7.1,1.3-20.2,6.8-27.3,8.5c-7.4,1.8-23.3,2.5-23.3,2.5l0.7,83.4
		c0,0,16-1.2,23.4-3c7-1.7,20.1-7.2,27.3-8.5c7.1-1.3,12.3,4.9,12.3,4.9L681.1,141.5z"/>
	<path class="st0" d="M681.1,141.5c0,0,5.4-5.8,12.5-4.5c7.1,1.3,20.2,6.8,27.3,8.5c7.4,1.8,23.3,2.5,23.3,2.5l-0.7,83.4
		c0,0-16-1.2-23.4-3c-7-1.7-20.1-7.2-27.3-8.5c-7.1-1.3-11.1,4.9-11.1,4.9L681.1,141.5z"/>
	<path class="st1" d="M708.6,151.3c-4.3,3.2-2.7,6.8-0.1,10.7c1.1,1.9,1.1,3.9,1.3,5c-0.2,2.8-1.4,14.8-1.5,33.3
		c0,1.1,0.2,4.2-0.7,4.9c-4.1,3-4.1,5.3-3.2,7.3c0.1,0.2,2.1,5.5,5.8,6.2c0.8,0.2-1.3-5.3-1.1-6.1c0.5-2.6,6.6-2.3,7.2-1.1
		c0.7,1.4,1.7,6.3,2,5.9c1.2-1.4,3.2-7.8,0.4-9.8c-3.9-2.8-3.6-5.7-3.6-6c0-8.2,0.6-25.8,0.9-33.9c0.1-1.9,0.7-3,1.2-4.3
		c0.7-1.6,3.6-2.1,4.1-4.1c0.8-3.2-3.8-7.8-5.3-8.3c-0.8-0.3,1.6,5.8,1,6.5c-1,1.2-5.2,1.2-6.4,0.3
		C709,156.6,710.1,151.7,708.6,151.3L708.6,151.3z"/>
</g>
</svg>
