<?xml version="1.0" encoding="utf-8"?>
<svg id="master-artboard" viewBox="0 0 210 144" version="1.1" xmlns="http://www.w3.org/2000/svg" x="0px" y="0px" style="enable-background:new 0 0 336 235.2;" width="1400px" height="980px"><defs><style id="ee-google-fonts">@import url(https://fonts.googleapis.com/css?family=La+Belle+Aurore:400|Wire+One:400);</style></defs><path d="M 433.1199951171875 403.3900146484375 C 433.1199951171875 402.80999755859375 433.2799987792969 402.1866760253906 433.6000061035156 401.5199890136719 C 433.9200134277344 400.8466796875 434.2699890136719 400.1700134277344 434.6499938964844 399.489990234375 C 435.0366516113281 398.80999755859375 435.3900146484375 398.1400146484375 435.7099914550781 397.4800109863281 C 436.0299987792969 396.82666015625 436.19000244140625 396.2200012207031 436.19000244140625 395.6600036621094 C 436.19000244140625 395.44000244140625 436.1400146484375 395.23333740234375 436.0400085449219 395.0400085449219 C 435.9333190917969 394.8399963378906 435.8233337402344 394.6433410644531 435.7099914550781 394.45001220703125 C 435.5899963378906 394.25665283203125 435.48333740234375 394.05999755859375 435.3900146484375 393.8599853515625 C 435.2966613769531 393.6666564941406 435.25 393.4533386230469 435.25 393.2200012207031 C 435.25 392.9533386230469 435.3566589355469 392.6966552734375 435.57000732421875 392.45001220703125 C 435.77667236328125 392.1966552734375 436.0133361816406 392.07000732421875 436.2799987792969 392.07000732421875 C 436.2799987792969 392.2099914550781 436.2866516113281 392.3766784667969 436.29998779296875 392.57000732421875 C 436.32000732421875 392.7699890136719 436.3566589355469 392.96331787109375 436.4100036621094 393.1499938964844 C 436.4633483886719 393.336669921875 436.5466613769531 393.5033264160156 436.6600036621094 393.6499938964844 C 436.76666259765625 393.7966613769531 436.913330078125 393.9033203125 437.1000061035156 393.9700012207031 C 437.260009765625 393.54998779296875 437.5 393 437.82000732421875 392.32000732421875 C 438.1400146484375 391.6400146484375 438.5199890136719 390.913330078125 438.9599914550781 390.1400146484375 C 439.40667724609375 389.3666687011719 439.8933410644531 388.59332275390625 440.4200134277344 387.82000732421875 C 440.94000244140625 387.0466613769531 441.4800109863281 386.3466796875 442.0400085449219 385.7200012207031 C 442.59332275390625 385.09332275390625 443.1499938964844 384.586669921875 443.7099914550781 384.20001220703125 C 444.2699890136719 383.8066711425781 444.79998779296875 383.6099853515625 445.29998779296875 383.6099853515625 C 445.67999267578125 383.6099853515625 446.00665283203125 383.6866760253906 446.2799987792969 383.8399963378906 C 446.5533447265625 384 446.77667236328125 384.2066650390625 446.95001220703125 384.4599914550781 C 447.1166687011719 384.7200012207031 447.239990234375 385.0133361816406 447.32000732421875 385.3399963378906 C 447.3999938964844 385.67333984375 447.44000244140625 386.010009765625 447.44000244140625 386.3500061035156 C 447.44000244140625 387.6166687011719 447.1700134277344 388.79998779296875 446.6300048828125 389.8999938964844 C 446.0899963378906 391 445.3800048828125 391.9700012207031 444.5 392.80999755859375 C 443.61334228515625 393.6433410644531 442.6066589355469 394.3233337402344 441.4800109863281 394.8500061035156 C 440.3599853515625 395.3699951171875 439.2066650390625 395.6866760253906 438.0199890136719 395.79998779296875 L 437.3800048828125 396.7099914550781 L 434.6600036621094 403.3900146484375 C 434.5400085449219 403.65667724609375 434.413330078125 403.8299865722656 434.2799987792969 403.9100036621094 C 434.14666748046875 403.98333740234375 433.9766540527344 404.0199890136719 433.7699890136719 404.0199890136719 C 433.336669921875 404.0199890136719 433.1199951171875 403.80999755859375 433.1199951171875 403.3900146484375 M 445 385.1300048828125 C 444.55999755859375 385.1300048828125 444.1099853515625 385.2900085449219 443.6499938964844 385.6099853515625 C 443.19000244140625 385.92999267578125 442.73333740234375 386.3500061035156 442.2799987792969 386.8699951171875 C 441.82666015625 387.3833312988281 441.39666748046875 387.9599914550781 440.989990234375 388.6000061035156 C 440.5833435058594 389.239990234375 440.22332763671875 389.8766784667969 439.9100036621094 390.510009765625 C 439.60333251953125 391.1433410644531 439.3599853515625 391.739990234375 439.17999267578125 392.29998779296875 C 439 392.8666687011719 438.9100036621094 393.3299865722656 438.9100036621094 393.69000244140625 C 438.9100036621094 393.7166748046875 438.913330078125 393.80999755859375 438.9200134277344 393.9700012207031 C 438.9266662597656 394.1233215332031 438.92999267578125 394.22332763671875 438.92999267578125 394.2699890136719 C 439.9166564941406 394.22332763671875 440.8399963378906 393.9533386230469 441.70001220703125 393.4599914550781 C 442.5533447265625 392.97332763671875 443.2933349609375 392.3466796875 443.9200134277344 391.5799865722656 C 444.5466613769531 390.8133239746094 445.0400085449219 389.9566650390625 445.3999938964844 389.010009765625 C 445.760009765625 388.0633239746094 445.94000244140625 387.1233215332031 445.94000244140625 386.19000244140625 C 445.94000244140625 385.75 445.8933410644531 385.46331787109375 445.79998779296875 385.3299865722656 C 445.7066650390625 385.1966552734375 445.44000244140625 385.1300048828125 445 385.1300048828125 ZM 442.5604248046875 402.4800109863281 C 442.7004089355469 401.586669921875 442.9670715332031 400.76666259765625 443.36041259765625 400.0199890136719 C 443.7470703125 399.26666259765625 444.19708251953125 398.61334228515625 444.7104187011719 398.05999755859375 C 445.2170715332031 397.50665283203125 445.76708984375 397.04998779296875 446.36041259765625 396.69000244140625 C 446.9537353515625 396.3299865722656 447.5304260253906 396.1000061035156 448.0904235839844 396 C 448.6570739746094 395.8933410644531 449.17706298828125 395.9200134277344 449.6504211425781 396.0799865722656 C 450.1304016113281 396.23333740234375 450.51708984375 396.5466613769531 450.8104248046875 397.0199890136719 C 450.8104248046875 397.3733215332031 450.73040771484375 397.7166748046875 450.5704040527344 398.04998779296875 C 450.40374755859375 398.3766784667969 450.2237548828125 398.7033386230469 450.0304260253906 399.0299987792969 C 449.8304138183594 399.3566589355469 449.6504211425781 399.6933288574219 449.49041748046875 400.0400085449219 C 449.32373046875 400.3800048828125 449.24041748046875 400.7466735839844 449.24041748046875 401.1400146484375 C 449.24041748046875 401.5466613769531 449.3304138183594 401.8699951171875 449.5104064941406 402.1099853515625 C 449.6903991699219 402.3566589355469 450.007080078125 402.4800109863281 450.4604187011719 402.4800109863281 C 450.833740234375 402.4800109863281 451.19708251953125 402.42333984375 451.5504150390625 402.30999755859375 C 451.90374755859375 402.2033386230469 452.2604064941406 402.1499938964844 452.62042236328125 402.1499938964844 C 452.680419921875 402.1499938964844 452.78375244140625 402.1533203125 452.930419921875 402.1600036621094 C 453.083740234375 402.1666564941406 453.1837463378906 402.1700134277344 453.23040771484375 402.1700134277344 C 453.0370788574219 402.4366760253906 452.7937316894531 402.663330078125 452.5003967285156 402.8500061035156 C 452.2004089355469 403.0366516113281 451.8870849609375 403.1966552734375 451.5604248046875 403.3299865722656 C 451.2337341308594 403.4633483886719 450.89373779296875 403.55999755859375 450.5404052734375 403.6199951171875 C 450.1937561035156 403.6866760253906 449.87042236328125 403.7200012207031 449.5704040527344 403.7200012207031 C 449.2904052734375 403.7200012207031 449.0404052734375 403.65667724609375 448.8204040527344 403.5299987792969 C 448.60040283203125 403.4033203125 448.41375732421875 403.239990234375 448.2604064941406 403.0400085449219 C 448.10040283203125 402.8333435058594 447.9770812988281 402.60333251953125 447.8904113769531 402.3500061035156 C 447.8104248046875 402.0899963378906 447.7704162597656 401.836669921875 447.7704162597656 401.5899963378906 C 447.5304260253906 401.8500061035156 447.27374267578125 402.1266784667969 447.0003967285156 402.4200134277344 C 446.7270812988281 402.7066650390625 446.4403991699219 402.9666748046875 446.1404113769531 403.20001220703125 C 445.833740234375 403.4333190917969 445.5037536621094 403.6300048828125 445.1504211425781 403.7900085449219 C 444.7970886230469 403.9433288574219 444.4337463378906 404.0199890136719 444.0604248046875 404.0199890136719 C 443.65374755859375 404.0199890136719 443.3037414550781 403.8699951171875 443.0104064941406 403.57000732421875 C 442.7104187011719 403.2633361816406 442.5604248046875 402.8999938964844 442.5604248046875 402.4800109863281 M 444.11041259765625 401.75 C 444.11041259765625 401.8766784667969 444.1137390136719 402.01666259765625 444.12042236328125 402.1700134277344 C 444.1270751953125 402.3299865722656 444.2237548828125 402.4333190917969 444.410400390625 402.4800109863281 C 444.8037414550781 402.38665771484375 445.2503967285156 402.17999267578125 445.7503967285156 401.8599853515625 C 446.2503967285156 401.5333251953125 446.72039794921875 401.15667724609375 447.160400390625 400.7300109863281 C 447.59375 400.3033447265625 447.9604187011719 399.84332275390625 448.2604064941406 399.3500061035156 C 448.5537414550781 398.8566589355469 448.7004089355469 398.3833312988281 448.7004089355469 397.92999267578125 C 448.7004089355469 397.89666748046875 448.69708251953125 397.8466796875 448.6903991699219 397.7799987792969 C 448.6837463378906 397.7066650390625 448.680419921875 397.6533203125 448.680419921875 397.6199951171875 C 448.1470642089844 397.6199951171875 447.6070861816406 397.7300109863281 447.0604248046875 397.95001220703125 C 446.51373291015625 398.1700134277344 446.02374267578125 398.47332763671875 445.5904235839844 398.8599853515625 C 445.1504211425781 399.239990234375 444.7937316894531 399.67999267578125 444.5204162597656 400.17999267578125 C 444.2470703125 400.67999267578125 444.11041259765625 401.2033386230469 444.11041259765625 401.75 ZM 448.13519287109375 416.45001220703125 C 448.13519287109375 415.5566711425781 448.2885437011719 414.75665283203125 448.5951843261719 414.04998779296875 C 448.90185546875 413.3500061035156 449.3052062988281 412.70001220703125 449.8052062988281 412.1000061035156 C 450.3052062988281 411.5 450.87518310546875 410.9433288574219 451.51519775390625 410.42999267578125 C 452.15521240234375 409.92333984375 452.8118591308594 409.4333190917969 453.4851989746094 408.9599914550781 C 454.1585388183594 408.4800109863281 454.815185546875 408 455.4552001953125 407.5199890136719 C 456.0951843261719 407.0333251953125 456.6651916503906 406.51666259765625 457.1651916503906 405.9700012207031 C 457.6651916503906 405.42333984375 458.06854248046875 404.8299865722656 458.37518310546875 404.19000244140625 C 458.6752014160156 403.54998779296875 458.8251953125 402.836669921875 458.8251953125 402.04998779296875 C 458.8251953125 402.0233459472656 458.8251953125 401.95001220703125 458.8251953125 401.8299865722656 C 458.8251953125 401.7166748046875 458.81854248046875 401.6433410644531 458.8052062988281 401.6099853515625 C 458.6985168457031 401.7033386230469 458.488525390625 401.8399963378906 458.1752014160156 402.0199890136719 C 457.86187744140625 402.20001220703125 457.5285339355469 402.38665771484375 457.1752014160156 402.5799865722656 C 456.8218688964844 402.7733459472656 456.48187255859375 402.95001220703125 456.15521240234375 403.1099853515625 C 455.8285217285156 403.2633361816406 455.5951843261719 403.36334228515625 455.4552001953125 403.4100036621094 C 455.4352111816406 403.4100036621094 455.37518310546875 403.4200134277344 455.27520751953125 403.44000244140625 C 455.1752014160156 403.4533386230469 455.05853271484375 403.4666748046875 454.9252014160156 403.4800109863281 C 454.7918701171875 403.5 454.661865234375 403.5133361816406 454.5351867675781 403.5199890136719 C 454.4151916503906 403.52667236328125 454.315185546875 403.5299987792969 454.2351989746094 403.5299987792969 C 453.5285339355469 403.4033203125 453.05853271484375 403.15667724609375 452.8251953125 402.7900085449219 C 452.59185791015625 402.42333984375 452.5318603515625 401.989990234375 452.64520263671875 401.489990234375 C 452.7518615722656 400.989990234375 452.9952087402344 400.4566650390625 453.37518310546875 399.8900146484375 C 453.7618713378906 399.3166809082031 454.2251892089844 398.7699890136719 454.76519775390625 398.25 C 455.29852294921875 397.72332763671875 455.8818664550781 397.2533264160156 456.51519775390625 396.8399963378906 C 457.1485290527344 396.4266662597656 457.7685241699219 396.1300048828125 458.37518310546875 395.95001220703125 C 458.9751892089844 395.7699890136719 459.5285339355469 395.7300109863281 460.0351867675781 395.8299865722656 C 460.5418701171875 395.92999267578125 460.9352111816406 396.239990234375 461.2152099609375 396.760009765625 C 461.30853271484375 397.413330078125 461.30853271484375 398.02667236328125 461.2152099609375 398.6000061035156 C 461.1218566894531 399.1666564941406 460.99853515625 399.72332763671875 460.8451843261719 400.2699890136719 C 460.6852111816406 400.8166809082031 460.5285339355469 401.3699951171875 460.37518310546875 401.92999267578125 C 460.22186279296875 402.48333740234375 460.1285400390625 403.086669921875 460.0951843261719 403.739990234375 L 460.3052062988281 403.739990234375 C 460.3985290527344 403.64666748046875 460.55853271484375 403.48333740234375 460.7851867675781 403.25 C 461.0118713378906 403.01666259765625 461.25518798828125 402.7699890136719 461.51519775390625 402.510009765625 C 461.7685241699219 402.25 462.0118713378906 402.010009765625 462.2452087402344 401.7900085449219 C 462.4851989746094 401.5633239746094 462.65185546875 401.3999938964844 462.7452087402344 401.29998779296875 C 462.7918701171875 401.2533264160156 462.8885192871094 401.1933288574219 463.0351867675781 401.1199951171875 C 463.1818542480469 401.0400085449219 463.2885437011719 401 463.3551940917969 401 L 463.3551940917969 401.07000732421875 L 463.3551940917969 401.1199951171875 C 463.3551940917969 401.1333312988281 463.36187744140625 401.1400146484375 463.37518310546875 401.1400146484375 C 463.37518310546875 401.70001220703125 463.2152099609375 402.2166748046875 462.89520263671875 402.69000244140625 C 462.5751953125 403.15667724609375 462.18853759765625 403.59332275390625 461.7351989746094 404 C 461.2818603515625 404.40667724609375 460.8118591308594 404.7866516113281 460.3251953125 405.1400146484375 C 459.8451843261719 405.4866638183594 459.43853759765625 405.82666015625 459.1051940917969 406.1600036621094 C 458.8451843261719 406.7066650390625 458.55853271484375 407.3900146484375 458.2452087402344 408.2099914550781 C 457.9318542480469 409.0299987792969 457.5885314941406 409.9033203125 457.2152099609375 410.8299865722656 C 456.835205078125 411.7633361816406 456.4151916503906 412.7099914550781 455.9552001953125 413.6700134277344 C 455.4952087402344 414.6300048828125 454.9785461425781 415.51666259765625 454.40521240234375 416.3299865722656 C 453.8385314941406 417.1433410644531 453.21185302734375 417.84332275390625 452.52520751953125 418.42999267578125 C 451.8385314941406 419.010009765625 451.0718688964844 419.38665771484375 450.2251892089844 419.55999755859375 C 449.81854248046875 419.55999755859375 449.4785461425781 419.4599914550781 449.2052001953125 419.260009765625 C 448.9318542480469 419.0533447265625 448.7185363769531 418.79998779296875 448.565185546875 418.5 C 448.40521240234375 418.1933288574219 448.2951965332031 417.8566589355469 448.2351989746094 417.489990234375 C 448.16851806640625 417.1233215332031 448.13519287109375 416.77667236328125 448.13519287109375 416.45001220703125 M 449.38519287109375 417.7099914550781 C 449.50518798828125 418.010009765625 449.65185546875 418.19000244140625 449.8251953125 418.25 C 449.99853515625 418.30999755859375 450.1951904296875 418.3399963378906 450.4151916503906 418.3399963378906 C 450.8218688964844 418.3399963378906 451.26519775390625 418.1300048828125 451.7452087402344 417.7099914550781 C 452.23187255859375 417.2900085449219 452.72186279296875 416.7466735839844 453.2152099609375 416.0799865722656 C 453.7085266113281 415.4200134277344 454.1818542480469 414.6833190917969 454.63519287109375 413.8699951171875 C 455.0885314941406 413.0566711425781 455.488525390625 412.26666259765625 455.835205078125 411.5 C 456.18853759765625 410.73333740234375 456.47186279296875 410.0333251953125 456.6852111816406 409.3999938964844 C 456.8918762207031 408.76666259765625 456.9952087402344 408.2933349609375 456.9952087402344 407.9800109863281 C 456.9952087402344 407.9533386230469 456.9918518066406 407.9033203125 456.9851989746094 407.8299865722656 C 456.978515625 407.7633361816406 456.9751892089844 407.7133483886719 456.9751892089844 407.67999267578125 C 456.92852783203125 407.7133483886719 456.8218688964844 407.7633361816406 456.65521240234375 407.8299865722656 C 456.4952087402344 407.9033203125 456.3985290527344 407.9533386230469 456.3652038574219 407.9800109863281 C 455.71185302734375 408.4666748046875 454.9751892089844 409.0033264160156 454.15521240234375 409.5899963378906 C 453.335205078125 410.1766662597656 452.56854248046875 410.82000732421875 451.8551940917969 411.5199890136719 C 451.1418762207031 412.2266540527344 450.5451965332031 412.989990234375 450.065185546875 413.80999755859375 C 449.5785217285156 414.6300048828125 449.335205078125 415.51666259765625 449.335205078125 416.4700012207031 C 449.335205078125 416.51666259765625 449.335205078125 416.60333251953125 449.335205078125 416.7300109863281 C 449.335205078125 416.8500061035156 449.3385314941406 416.97332763671875 449.3451843261719 417.1000061035156 C 449.35186767578125 417.2266540527344 449.36187744140625 417.3466796875 449.37518310546875 417.4599914550781 C 449.3818664550781 417.5799865722656 449.38519287109375 417.663330078125 449.38519287109375 417.7099914550781 M 459.7152099609375 397.0400085449219 C 459.4685363769531 397.0400085449219 459.1418762207031 397.1233215332031 458.7351989746094 397.2900085449219 C 458.3285217285156 397.45001220703125 457.89520263671875 397.6700134277344 457.4352111816406 397.95001220703125 C 456.9751892089844 398.2300109863281 456.508544921875 398.54998779296875 456.0351867675781 398.9100036621094 C 455.56854248046875 399.2699890136719 455.14520263671875 399.64666748046875 454.76519775390625 400.0400085449219 C 454.3785400390625 400.4266662597656 454.06854248046875 400.8166809082031 453.835205078125 401.2099914550781 C 453.60186767578125 401.60333251953125 453.4851989746094 401.9633483886719 453.4851989746094 402.2900085449219 C 453.8118591308594 402.2900085449219 454.2085266113281 402.22332763671875 454.6752014160156 402.0899963378906 C 455.1485290527344 401.9566650390625 455.6385192871094 401.77667236328125 456.14520263671875 401.54998779296875 C 456.65185546875 401.3233337402344 457.15521240234375 401.0566711425781 457.65521240234375 400.75 C 458.15521240234375 400.45001220703125 458.6051940917969 400.1266784667969 459.00518798828125 399.7799987792969 C 459.40521240234375 399.44000244140625 459.728515625 399.0899963378906 459.9751892089844 398.7300109863281 C 460.228515625 398.3699951171875 460.3551940917969 398.01666259765625 460.3551940917969 397.6700134277344 C 460.3551940917969 397.25 460.1418762207031 397.0400085449219 459.7152099609375 397.0400085449219 ZM 463.21527099609375 402.7799987792969 C 462.9486083984375 402.1866760253906 462.82861328125 401.6066589355469 462.8552551269531 401.0400085449219 C 462.88861083984375 400.4666748046875 463.0185852050781 399.9266662597656 463.2452697753906 399.4200134277344 C 463.471923828125 398.913330078125 463.7685852050781 398.4533386230469 464.13525390625 398.0400085449219 C 464.5019226074219 397.6199951171875 464.895263671875 397.260009765625 465.3152770996094 396.9599914550781 C 465.741943359375 396.6533203125 466.1686096191406 396.42333984375 466.59527587890625 396.2699890136719 C 467.0285949707031 396.1099853515625 467.4085998535156 396.0433349609375 467.7352600097656 396.07000732421875 C 468.0619201660156 396.0899963378906 468.318603515625 396.2099914550781 468.5052795410156 396.42999267578125 C 468.6919250488281 396.6499938964844 468.7552795410156 396.9866638183594 468.69525146484375 397.44000244140625 C 468.69525146484375 398.0466613769531 468.5052795410156 398.57666015625 468.1252746582031 399.0299987792969 C 467.73858642578125 399.48333740234375 467.3152770996094 399.8900146484375 466.8552551269531 400.25 C 466.395263671875 400.6099853515625 465.971923828125 400.9333190917969 465.58526611328125 401.2200012207031 C 465.20526123046875 401.5133361816406 465.0152587890625 401.7833251953125 465.0152587890625 402.0299987792969 C 465.0152587890625 402.1700134277344 465.0986022949219 402.2799987792969 465.2652587890625 402.3599853515625 C 465.4252624511719 402.44000244140625 465.6152648925781 402.5 465.83526611328125 402.5400085449219 C 466.0552673339844 402.5733337402344 466.2752685546875 402.6000061035156 466.4952697753906 402.6199951171875 C 466.7085876464844 402.6333312988281 466.8652648925781 402.64666748046875 466.96527099609375 402.6600036621094 C 468.43194580078125 402.35333251953125 469.53192138671875 402.163330078125 470.2652587890625 402.0899963378906 C 470.99859619140625 402.01666259765625 471.4585876464844 402.0233459472656 471.645263671875 402.1099853515625 C 471.8319396972656 402.1966552734375 471.798583984375 402.3299865722656 471.5452575683594 402.510009765625 C 471.2852783203125 402.69000244140625 470.88861083984375 402.8766784667969 470.3552551269531 403.07000732421875 C 469.82861328125 403.2699890136719 469.2119445800781 403.4466552734375 468.5052795410156 403.6000061035156 C 467.8052673339844 403.760009765625 467.1119384765625 403.8500061035156 466.4252624511719 403.8699951171875 C 465.73193359375 403.89666748046875 465.09527587890625 403.8299865722656 464.5152587890625 403.6700134277344 C 463.9285888671875 403.51666259765625 463.4952697753906 403.2200012207031 463.21527099609375 402.7799987792969 M 467.3152770996094 397.44000244140625 C 467.0019226074219 397.44000244140625 466.70526123046875 397.52667236328125 466.4252624511719 397.70001220703125 C 466.13861083984375 397.8666687011719 465.8819274902344 398.0799865722656 465.6552734375 398.3399963378906 C 465.4285888671875 398.6000061035156 465.23858642578125 398.8800048828125 465.08526611328125 399.17999267578125 C 464.93194580078125 399.4866638183594 464.8152770996094 399.7733459472656 464.7352600097656 400.0400085449219 C 464.7685852050781 400.0533447265625 464.79193115234375 400.05999755859375 464.8052673339844 400.05999755859375 L 464.8752746582031 400.05999755859375 C 465.09527587890625 400.05999755859375 465.34527587890625 399.9666748046875 465.6252746582031 399.7799987792969 C 465.9052734375 399.59332275390625 466.17193603515625 399.36334228515625 466.4252624511719 399.0899963378906 C 466.67193603515625 398.8166809082031 466.8819274902344 398.5299987792969 467.0552673339844 398.2300109863281 C 467.2286071777344 397.9366760253906 467.3152770996094 397.67333984375 467.3152770996094 397.44000244140625 Z" transform="matrix(2.3317644596099854, 0, 0, 2.3317644596099854, -898.0472412109375, -889.0435180664062)" style="white-space: pre; fill: rgb(66, 66, 66); fill-opacity: 1; stroke: rgb(255, 255, 255);"/><path d="M 456.9100036621094 439.7300109863281 C 456.9566650390625 439.7900085449219 456.9800109863281 439.8566589355469 456.9800109863281 439.92999267578125 C 456.9800109863281 440.01666259765625 456.9466552734375 440.0899963378906 456.8800048828125 440.1499938964844 C 456.82000732421875 440.2033386230469 456.7466735839844 440.2300109863281 456.6600036621094 440.2300109863281 C 456.5733337402344 440.2300109863281 456.5 440.2033386230469 456.44000244140625 440.1499938964844 C 456.38665771484375 440.0899963378906 456.3599853515625 440.01666259765625 456.3599853515625 439.92999267578125 C 456.3599853515625 439.8566589355469 456.3833312988281 439.7900085449219 456.42999267578125 439.7300109863281 L 456.42999267578125 430.5199890136719 C 456.42999267578125 430.2466735839844 456.39666748046875 429.97332763671875 456.3299865722656 429.70001220703125 C 456.2699890136719 429.4266662597656 456.163330078125 429.1833190917969 456.010009765625 428.9700012207031 C 455.8566589355469 428.75 455.6533203125 428.5733337402344 455.3999938964844 428.44000244140625 C 455.14666748046875 428.29998779296875 454.8233337402344 428.2300109863281 454.42999267578125 428.2300109863281 C 454.0966796875 428.2300109863281 453.8033447265625 428.29998779296875 453.54998779296875 428.44000244140625 C 453.3033447265625 428.5733337402344 453.0966796875 428.75 452.92999267578125 428.9700012207031 C 452.7699890136719 429.1833190917969 452.64666748046875 429.4266662597656 452.55999755859375 429.70001220703125 C 452.4800109863281 429.97332763671875 452.44000244140625 430.2466735839844 452.44000244140625 430.5199890136719 L 452.44000244140625 439.7300109863281 C 452.4866638183594 439.7900085449219 452.510009765625 439.8566589355469 452.510009765625 439.92999267578125 C 452.510009765625 440.01666259765625 452.4800109863281 440.0899963378906 452.4200134277344 440.1499938964844 C 452.35333251953125 440.2033386230469 452.2799987792969 440.2300109863281 452.20001220703125 440.2300109863281 C 452.11334228515625 440.2300109863281 452.0400085449219 440.2033386230469 451.9800109863281 440.1499938964844 C 451.9200134277344 440.0899963378906 451.8900146484375 440.01666259765625 451.8900146484375 439.92999267578125 C 451.8900146484375 439.8566589355469 451.913330078125 439.7900085449219 451.9599914550781 439.7300109863281 L 451.9599914550781 428.2900085449219 C 451.913330078125 428.2166748046875 451.8900146484375 428.1433410644531 451.8900146484375 428.07000732421875 C 451.8900146484375 427.98333740234375 451.9200134277344 427.9100036621094 451.9800109863281 427.8500061035156 C 452.0400085449219 427.7966613769531 452.11334228515625 427.7699890136719 452.20001220703125 427.7699890136719 C 452.2799987792969 427.7699890136719 452.35333251953125 427.7966613769531 452.4200134277344 427.8500061035156 C 452.4800109863281 427.9100036621094 452.510009765625 427.98333740234375 452.510009765625 428.07000732421875 C 452.510009765625 428.1433410644531 452.4866638183594 428.2166748046875 452.44000244140625 428.2900085449219 L 452.44000244140625 428.8900146484375 C 452.6600036621094 428.510009765625 452.9266662597656 428.2266540527344 453.239990234375 428.0400085449219 C 453.5533447265625 427.8599853515625 453.95001220703125 427.7699890136719 454.42999267578125 427.7699890136719 C 454.9100036621094 427.7699890136719 455.3066711425781 427.8500061035156 455.6199951171875 428.010009765625 C 455.94000244140625 428.1700134277344 456.1933288574219 428.3766784667969 456.3800048828125 428.6300048828125 C 456.5733337402344 428.8900146484375 456.7099914550781 429.1833190917969 456.7900085449219 429.510009765625 C 456.8699951171875 429.836669921875 456.9100036621094 430.17333984375 456.9100036621094 430.5199890136719 L 456.9100036621094 439.7300109863281 ZM 463.50018310546875 439.7300109863281 C 463.5601806640625 439.8033447265625 463.5901794433594 439.8699951171875 463.5901794433594 439.92999267578125 C 463.5901794433594 440.01666259765625 463.5568542480469 440.0899963378906 463.4902038574219 440.1499938964844 C 463.43017578125 440.2033386230469 463.35687255859375 440.2300109863281 463.27020263671875 440.2300109863281 C 463.18353271484375 440.2300109863281 463.1101989746094 440.2033386230469 463.0502014160156 440.1499938964844 C 462.9835205078125 440.0899963378906 462.9501953125 440.01666259765625 462.9501953125 439.92999267578125 C 462.9501953125 439.8566589355469 462.9735107421875 439.7900085449219 463.02020263671875 439.7300109863281 L 463.02020263671875 439.2300109863281 C 462.81353759765625 439.5299987792969 462.5502014160156 439.7733459472656 462.2301940917969 439.9599914550781 C 461.9168701171875 440.1400146484375 461.516845703125 440.2300109863281 461.0301818847656 440.2300109863281 C 460.56353759765625 440.2300109863281 460.1701965332031 440.1499938964844 459.8501892089844 439.989990234375 C 459.536865234375 439.8299865722656 459.2835388183594 439.6233215332031 459.0901794433594 439.3699951171875 C 458.8968505859375 439.1099853515625 458.76019287109375 438.8166809082031 458.68017578125 438.489990234375 C 458.6001892089844 438.163330078125 458.5601806640625 437.82666015625 458.5601806640625 437.4800109863281 L 458.5601806640625 435.5400085449219 C 458.5601806640625 435.1933288574219 458.59686279296875 434.8566589355469 458.6701965332031 434.5299987792969 C 458.7435302734375 434.2033386230469 458.8868713378906 433.9100036621094 459.1001892089844 433.6499938964844 C 459.3201904296875 433.3900146484375 459.63018798828125 433.17999267578125 460.0301818847656 433.0199890136719 C 460.43017578125 432.8599853515625 460.960205078125 432.7799987792969 461.62017822265625 432.7799987792969 L 463.02020263671875 432.7799987792969 L 463.02020263671875 430.5199890136719 C 463.02020263671875 430.2466735839844 462.9868469238281 429.97332763671875 462.9201965332031 429.70001220703125 C 462.853515625 429.4266662597656 462.7468566894531 429.1833190917969 462.6001892089844 428.9700012207031 C 462.4468688964844 428.75 462.2402038574219 428.5733337402344 461.9801940917969 428.44000244140625 C 461.7201843261719 428.29998779296875 461.4035339355469 428.2300109863281 461.0301818847656 428.2300109863281 C 460.6701965332031 428.2300109863281 460.3668518066406 428.2933349609375 460.12017822265625 428.4200134277344 C 459.8668518066406 428.5400085449219 459.6601867675781 428.6933288574219 459.50018310546875 428.8800048828125 C 459.3401794433594 429.0733337402344 459.2201843261719 429.2966613769531 459.14019775390625 429.54998779296875 C 459.0668640136719 429.7966613769531 459.02685546875 430.04998779296875 459.02020263671875 430.30999755859375 C 459.0735168457031 430.36334228515625 459.1001892089844 430.4266662597656 459.1001892089844 430.5 C 459.1001892089844 430.5666809082031 459.0668640136719 430.6333312988281 459.00018310546875 430.70001220703125 C 458.940185546875 430.760009765625 458.8668518066406 430.7900085449219 458.7801818847656 430.7900085449219 C 458.6935119628906 430.7900085449219 458.62017822265625 430.760009765625 458.5601806640625 430.70001220703125 C 458.4935302734375 430.6333312988281 458.460205078125 430.5666809082031 458.460205078125 430.5 C 458.460205078125 430.4599914550781 458.46685791015625 430.4200134277344 458.4801940917969 430.3800048828125 C 458.4935302734375 430.3399963378906 458.51019287109375 430.30999755859375 458.5301818847656 430.2900085449219 C 458.5568542480469 429.9566650390625 458.6168518066406 429.6400146484375 458.710205078125 429.3399963378906 C 458.80352783203125 429.0400085449219 458.9501953125 428.7733459472656 459.1501770019531 428.5400085449219 C 459.3501892089844 428.3066711425781 459.603515625 428.1199951171875 459.9101867675781 427.9800109863281 C 460.210205078125 427.8399963378906 460.5835266113281 427.7699890136719 461.0301818847656 427.7699890136719 C 461.4968566894531 427.7699890136719 461.89019775390625 427.8500061035156 462.210205078125 428.010009765625 C 462.5235290527344 428.1700134277344 462.77685546875 428.3766784667969 462.9701843261719 428.6300048828125 C 463.16351318359375 428.8900146484375 463.3002014160156 429.1833190917969 463.38018798828125 429.510009765625 C 463.460205078125 429.836669921875 463.50018310546875 430.17333984375 463.50018310546875 430.5199890136719 L 463.50018310546875 439.7300109863281 M 459.0401916503906 437.4800109863281 C 459.0401916503906 437.7533264160156 459.0701904296875 438.02667236328125 459.13018798828125 438.29998779296875 C 459.1968688964844 438.5733337402344 459.30352783203125 438.82000732421875 459.4501953125 439.0400085449219 C 459.603515625 439.260009765625 459.8068542480469 439.4366760253906 460.0601806640625 439.57000732421875 C 460.3201904296875 439.7033386230469 460.6435241699219 439.7699890136719 461.0301818847656 439.7699890136719 C 461.4035339355469 439.7699890136719 461.71685791015625 439.7066650390625 461.9701843261719 439.5799865722656 C 462.21685791015625 439.4599914550781 462.4168701171875 439.29998779296875 462.5701904296875 439.1000061035156 C 462.7235107421875 438.8999938964844 462.8335266113281 438.67333984375 462.9001770019531 438.4200134277344 C 462.96685791015625 438.1666564941406 463.0068664550781 437.90667724609375 463.02020263671875 437.6400146484375 L 463.02020263671875 433.260009765625 L 461.62017822265625 433.260009765625 C 461.05352783203125 433.260009765625 460.6001892089844 433.32666015625 460.26019287109375 433.4599914550781 C 459.9201965332031 433.59332275390625 459.6601867675781 433.76666259765625 459.4801940917969 433.9800109863281 C 459.29351806640625 434.1933288574219 459.17352294921875 434.4366760253906 459.12017822265625 434.7099914550781 C 459.0668640136719 434.98333740234375 459.0401916503906 435.260009765625 459.0401916503906 435.5400085449219 L 459.0401916503906 437.4800109863281 ZM 470.32769775390625 439.7300109863281 C 470.3743591308594 439.7900085449219 470.397705078125 439.8566589355469 470.397705078125 439.92999267578125 C 470.397705078125 440.01666259765625 470.3643493652344 440.0899963378906 470.2976989746094 440.1499938964844 C 470.2377014160156 440.2033386230469 470.16436767578125 440.2300109863281 470.07769775390625 440.2300109863281 C 469.99102783203125 440.2300109863281 469.9176940917969 440.2033386230469 469.8576965332031 440.1499938964844 C 469.8043518066406 440.0899963378906 469.7776794433594 440.01666259765625 469.7776794433594 439.92999267578125 C 469.7776794433594 439.8566589355469 469.801025390625 439.7900085449219 469.8476867675781 439.7300109863281 L 469.8476867675781 430.5199890136719 C 469.8476867675781 430.2466735839844 469.8143615722656 429.97332763671875 469.7476806640625 429.70001220703125 C 469.68768310546875 429.4266662597656 469.5810241699219 429.1833190917969 469.4277038574219 428.9700012207031 C 469.27435302734375 428.75 469.0710144042969 428.5733337402344 468.81768798828125 428.44000244140625 C 468.5643615722656 428.29998779296875 468.24102783203125 428.2300109863281 467.8476867675781 428.2300109863281 C 467.5143737792969 428.2300109863281 467.2210388183594 428.29998779296875 466.9676818847656 428.44000244140625 C 466.7210388183594 428.5733337402344 466.5143737792969 428.75 466.3476867675781 428.9700012207031 C 466.18768310546875 429.1833190917969 466.0643615722656 429.4266662597656 465.9776916503906 429.70001220703125 C 465.897705078125 429.97332763671875 465.8576965332031 430.2466735839844 465.8576965332031 430.5199890136719 L 465.8576965332031 439.7300109863281 C 465.90435791015625 439.7900085449219 465.9277038574219 439.8566589355469 465.9277038574219 439.92999267578125 C 465.9277038574219 440.01666259765625 465.897705078125 440.0899963378906 465.83770751953125 440.1499938964844 C 465.7710266113281 440.2033386230469 465.69769287109375 440.2300109863281 465.6177062988281 440.2300109863281 C 465.5310363769531 440.2300109863281 465.45770263671875 440.2033386230469 465.397705078125 440.1499938964844 C 465.33770751953125 440.0899963378906 465.3077087402344 440.01666259765625 465.3077087402344 439.92999267578125 C 465.3077087402344 439.8566589355469 465.3310241699219 439.7900085449219 465.377685546875 439.7300109863281 L 465.377685546875 428.2900085449219 C 465.3310241699219 428.2166748046875 465.3077087402344 428.1433410644531 465.3077087402344 428.07000732421875 C 465.3077087402344 427.98333740234375 465.33770751953125 427.9100036621094 465.397705078125 427.8500061035156 C 465.45770263671875 427.7966613769531 465.5310363769531 427.7699890136719 465.6177062988281 427.7699890136719 C 465.69769287109375 427.7699890136719 465.7710266113281 427.7966613769531 465.83770751953125 427.8500061035156 C 465.897705078125 427.9100036621094 465.9277038574219 427.98333740234375 465.9277038574219 428.07000732421875 C 465.9277038574219 428.1433410644531 465.90435791015625 428.2166748046875 465.8576965332031 428.2900085449219 L 465.8576965332031 428.8900146484375 C 466.07769775390625 428.510009765625 466.3443603515625 428.2266540527344 466.6576843261719 428.0400085449219 C 466.9710388183594 427.8599853515625 467.3677062988281 427.7699890136719 467.8476867675781 427.7699890136719 C 468.32769775390625 427.7699890136719 468.724365234375 427.8500061035156 469.0376892089844 428.010009765625 C 469.3576965332031 428.1700134277344 469.61102294921875 428.3766784667969 469.7976989746094 428.6300048828125 C 469.99102783203125 428.8900146484375 470.127685546875 429.1833190917969 470.20770263671875 429.510009765625 C 470.2876892089844 429.836669921875 470.32769775390625 430.17333984375 470.32769775390625 430.5199890136719 L 470.32769775390625 439.7300109863281 ZM 472.5578918457031 437.4800109863281 C 472.5578918457031 437.760009765625 472.5912170410156 438.0366516113281 472.65789794921875 438.30999755859375 C 472.72454833984375 438.5833435058594 472.8345642089844 438.82666015625 472.9878845214844 439.0400085449219 C 473.1412048339844 439.260009765625 473.3478698730469 439.4366760253906 473.6078796386719 439.57000732421875 C 473.8612060546875 439.7033386230469 474.1778869628906 439.7699890136719 474.5578918457031 439.7699890136719 C 474.9378967285156 439.7699890136719 475.25787353515625 439.7033386230469 475.51788330078125 439.57000732421875 C 475.7712097167969 439.4366760253906 475.97454833984375 439.260009765625 476.1278991699219 439.0400085449219 C 476.2812194824219 438.82666015625 476.38787841796875 438.5833435058594 476.4478759765625 438.30999755859375 C 476.5145568847656 438.0366516113281 476.5478820800781 437.760009765625 476.5478820800781 437.4800109863281 L 476.5478820800781 430.5199890136719 C 476.5478820800781 430.2466735839844 476.5145568847656 429.97332763671875 476.4478759765625 429.70001220703125 C 476.38787841796875 429.4266662597656 476.2812194824219 429.1833190917969 476.1278991699219 428.9700012207031 C 475.97454833984375 428.75 475.7712097167969 428.5733337402344 475.51788330078125 428.44000244140625 C 475.25787353515625 428.29998779296875 474.9378967285156 428.2300109863281 474.5578918457031 428.2300109863281 C 474.1778869628906 428.2300109863281 473.8612060546875 428.29998779296875 473.6078796386719 428.44000244140625 C 473.3478698730469 428.5733337402344 473.1412048339844 428.75 472.9878845214844 428.9700012207031 C 472.8345642089844 429.1833190917969 472.72454833984375 429.4266662597656 472.65789794921875 429.70001220703125 C 472.5912170410156 429.97332763671875 472.5578918457031 430.2466735839844 472.5578918457031 430.5199890136719 L 472.5578918457031 437.4800109863281 M 477.02789306640625 437.4800109863281 C 477.02789306640625 437.82666015625 476.9878845214844 438.163330078125 476.90789794921875 438.489990234375 C 476.82122802734375 438.8166809082031 476.68121337890625 439.1099853515625 476.4878845214844 439.3699951171875 C 476.2945556640625 439.6233215332031 476.0412292480469 439.8299865722656 475.7278747558594 439.989990234375 C 475.41455078125 440.1499938964844 475.0245361328125 440.2300109863281 474.5578918457031 440.2300109863281 C 474.0845642089844 440.2300109863281 473.69122314453125 440.1499938964844 473.3778991699219 439.989990234375 C 473.0578918457031 439.8299865722656 472.8045654296875 439.6233215332031 472.6178894042969 439.3699951171875 C 472.424560546875 439.1099853515625 472.2878723144531 438.8166809082031 472.2078857421875 438.489990234375 C 472.1212158203125 438.163330078125 472.077880859375 437.82666015625 472.077880859375 437.4800109863281 L 472.077880859375 430.5199890136719 C 472.077880859375 430.17333984375 472.1212158203125 429.836669921875 472.2078857421875 429.510009765625 C 472.2878723144531 429.1833190917969 472.424560546875 428.8900146484375 472.6178894042969 428.6300048828125 C 472.8045654296875 428.3766784667969 473.0578918457031 428.1700134277344 473.3778991699219 428.010009765625 C 473.69122314453125 427.8500061035156 474.0845642089844 427.7699890136719 474.5578918457031 427.7699890136719 C 475.0245361328125 427.7699890136719 475.41455078125 427.8500061035156 475.7278747558594 428.010009765625 C 476.0412292480469 428.1700134277344 476.2945556640625 428.3766784667969 476.4878845214844 428.6300048828125 C 476.68121337890625 428.8900146484375 476.82122802734375 429.1833190917969 476.90789794921875 429.510009765625 C 476.9878845214844 429.836669921875 477.02789306640625 430.17333984375 477.02789306640625 430.5199890136719 L 477.02789306640625 437.4800109863281 Z" transform="matrix(3.939857006072998, 0, 0, 3.939857006072998, -1773.7869873046875, -1681.1900634765625)" style="white-space: pre; fill: rgb(255, 255, 255); fill-opacity: 1; stroke: rgb(255, 255, 255); paint-order: stroke;"/></svg>
