<?xml version="1.0" encoding="utf-8"?>
<!-- Generator: Adobe Illustrator 21.0.0, SVG Export Plug-In . SVG Version: 6.00 Build 0)  -->
<svg version="1.1" id="Layer_1" xmlns="http://www.w3.org/2000/svg" xmlns:xlink="http://www.w3.org/1999/xlink" x="0px" y="0px"
	 viewBox="0 0 320 160" style="enable-background:new 0 0 320 160;" xml:space="preserve">
<style type="text/css">
	.st0{fill:none;stroke:#000000;stroke-width:0.8707;}
	.st1{fill:#502D16;stroke:#000000;stroke-width:1.2698;}
	.st2{fill:none;stroke:#000000;stroke-width:1.743;}
	.st3{fill:none;stroke:#000000;stroke-width:1.7711;}
	.st4{fill:none;stroke:#000000;stroke-width:1.4119;}
	.st5{fill:#2B2200;stroke:#000000;stroke-width:0.4092;}
	.st6{fill:none;stroke:#000000;stroke-width:0.8209;}
	.st7{fill:none;stroke:#000000;stroke-width:0.8343;}
	.st8{fill:#C8B7B7;stroke:#000000;stroke-width:0.3222;}
	.st9{fill:none;stroke:#929397;stroke-width:1.278;}
</style>
<g transform="matrix(.44909 0 0 .44353 228.48 68.006)">
	<path class="st0" d="M-205.9,151.4c0,0,17.7-51.6,104.1-49.9"/>
	<path class="st1" d="M-205.1,150.8L2.2,51.4"/>
	<path class="st0" d="M-102,101.7c0,0,17.7-51.6,104.1-49.9"/>
	<path class="st2" d="M1.5,50.7l-98.7-145"/>
	<path class="st3" d="M-205.1,150.3L-306.5,4.5"/>
	<path class="st0" d="M-306.2,5.3c0,0,17.7-51.6,104.1-49.9"/>
	<path class="st0" d="M-202.4-44.5c0,0,17.7-51.6,104.1-49.9"/>
	<path class="st4" d="M-201.5-44.6l99.4,145.4"/>
	<path class="st5" d="M-201.6,144.5c15.4-25.3,47.7-40.9,87.1-42.2c8.1-0.3,9-0.2,7.9,0.5c-1.6,1-96,46.2-97.2,46.6
		C-204.4,149.5-203.4,147.5-201.6,144.5L-201.6,144.5L-201.6,144.5z"/>
	<path class="st5" d="M-100.7,99.8c0-0.2,1.6-2.8,3.5-5.9c9.1-14.6,23.8-25.9,43-33.1c13.9-5.2,27-7.6,45.6-8.4l7.9-0.3l-47.9,23
		c-26.3,12.7-48.8,23.5-50,24C-99.7,99.7-100.7,100-100.7,99.8L-100.7,99.8L-100.7,99.8z"/>
	<path class="st6" d="M-204.5,149.8c0.8,0.6,24.1-42.9,98.7-46.8"/>
	<path class="st7" d="M-99.8,100.3c0.8,0.6,24.5-43.7,100-47.7"/>
	<path class="st8" d="M-126.1,104c0.2-0.2,0.6-0.5,1-0.5c0.4,0,0.6,0.2,0.4,0.5c-0.2,0.2-0.6,0.5-1,0.5
		C-126.1,104.4-126.3,104.2-126.1,104z"/>
	<path class="st8" d="M-124.6,103.2c0.3-0.1,0.7-0.1,0.9,0c0.1,0.1-0.1,0.3-0.6,0.2C-124.9,103.5-125,103.4-124.6,103.2z"/>
	<path class="st8" d="M-201.7,145.2c0-1.3,5.4-8.3,10.1-13.2c14.3-14.9,38.7-25.8,62.9-28.3c2-0.2,2.8-0.2,2.6,0.2
		c-0.2,0.3,0,0.6,0.3,0.7c0.3,0.1-0.5,0.4-1.9,0.5c-6.7,0.9-20.7,4.9-29.3,8.4c-15.4,6.1-30.8,16.6-40.3,27.3
		c-1.8,2-3.5,3.9-3.8,4.3S-201.7,145.5-201.7,145.2L-201.7,145.2z"/>
	<path class="st8" d="M-124.7,104c0.8-0.8,3.3-1.3,8.1-1.3c2.4,0,5.7-0.2,7.2-0.3c4.8-0.4-0.2,0.5-6.1,1.1c-2.9,0.3-6.2,0.6-7.4,0.8
		C-124.7,104.5-125.1,104.4-124.7,104L-124.7,104L-124.7,104z"/>
	<path class="st8" d="M-99,97.3c4.5-7.8,11.1-15.6,17.7-21C-67.5,65-46.8,56.7-26.2,54.1c1.4-0.2,2.8-0.4,3.3-0.5
		c0.4-0.1,3.4-0.2,6.5-0.4c4.5-0.2,5.2-0.1,3.1,0.2c-16.4,2.5-28.2,5.6-40.1,10.6c-17,7.1-32.9,18.8-43.4,32.1
		C-99.8,99.9-100.9,100.5-99,97.3L-99,97.3L-99,97.3z"/>
	<path class="st9" d="M-297.4,11.3c0,0,16.6-47.9,97.4-46.4"/>
	<path class="st9" d="M-280.9,38.3c0,0,16.6-47.9,97.4-46.4"/>
	<path class="st9" d="M-285.9,28.9c0,0,16.6-47.9,97.4-46.4"/>
	<path class="st9" d="M-291.3,18.9c0,0,16.6-47.9,97.4-46.4"/>
	<g transform="translate(41.286 61.224)">
		<path class="st9" d="M-315.6-15.7c0,0,16.6-47.9,97.4-46.4"/>
		<path class="st9" d="M-299.1,11.4c0,0,16.6-47.9,97.4-46.4"/>
		<path class="st9" d="M-304.1,1.9c0,0,16.6-47.9,97.4-46.4"/>
		<path class="st9" d="M-309.5-8c0,0,16.6-47.9,97.4-46.4"/>
	</g>
	<g transform="translate(83.981 120.84)">
		<path class="st9" d="M-334.4-41.9c0,0,16.6-47.9,97.4-46.4"/>
		<path class="st9" d="M-317.9-14.8c0,0,16.6-47.9,97.4-46.4"/>
		<path class="st9" d="M-322.9-24.3c0,0,16.6-47.9,97.4-46.4"/>
		<path class="st9" d="M-328.3-34.2c0,0,16.6-47.9,97.4-46.4"/>
	</g>
	<g transform="translate(125.87 182.06)">
		<path class="st9" d="M-352.8-68.8c0,0,16.6-47.9,97.4-46.4"/>
		<path class="st9" d="M-336.3-41.8c0,0,16.6-47.9,97.4-46.4"/>
		<path class="st9" d="M-341.3-51.2c0,0,16.6-47.9,97.4-46.4"/>
		<path class="st9" d="M-346.7-61.2c0,0,16.6-47.9,97.4-46.4"/>
	</g>
	<g transform="translate(186.99 -89.419)">
		<path class="st9" d="M-379.7,50.6c0,0,16.6-47.9,97.4-46.4"/>
		<path class="st9" d="M-363.2,77.7c0,0,16.6-47.9,97.4-46.4"/>
		<path class="st9" d="M-368.2,68.2c0,0,16.6-47.9,97.4-46.4"/>
		<path class="st9" d="M-373.6,58.3c0,0,16.6-47.9,97.4-46.4"/>
	</g>
	<g transform="translate(228.28 -28.195)">
		<path class="st9" d="M-397.9,23.7c0,0,16.6-47.9,97.4-46.4"/>
		<path class="st9" d="M-381.4,50.7c0,0,16.6-47.9,97.4-46.4"/>
		<path class="st9" d="M-386.4,41.3c0,0,16.6-47.9,97.4-46.4"/>
		<path class="st9" d="M-391.8,31.3c0,0,16.6-47.9,97.4-46.4"/>
	</g>
	<g transform="translate(270.97 31.417)">
		<path class="st9" d="M-416.6-2.6c0,0,16.6-47.9,97.4-46.4"/>
		<path class="st9" d="M-400.2,24.5c0,0,16.6-47.9,97.4-46.4"/>
		<path class="st9" d="M-405.1,15c0,0,16.6-47.9,97.4-46.4"/>
		<path class="st9" d="M-410.6,5.1c0,0,16.6-47.9,97.4-46.4"/>
	</g>
	<g transform="translate(312.86 92.641)">
		<path class="st9" d="M-435.1-29.5c0,0,16.6-47.9,97.4-46.4"/>
		<path class="st9" d="M-418.6-2.4c0,0,16.6-47.9,97.4-46.4"/>
		<path class="st9" d="M-423.6-11.9c0,0,16.6-47.9,97.4-46.4"/>
		<path class="st9" d="M-429-21.8c0,0,16.6-47.9,97.4-46.4"/>
	</g>
</g>
</svg>
