<?xml version="1.0" encoding="utf-8"?>
<!-- Generator: Adobe Illustrator 21.0.0, SVG Export Plug-In . SVG Version: 6.00 Build 0)  -->
<svg version="1.1" id="Layer_1" xmlns="http://www.w3.org/2000/svg" xmlns:xlink="http://www.w3.org/1999/xlink" x="0px" y="0px"
	 viewBox="0 0 320 160" style="enable-background:new 0 0 320 160;" xml:space="preserve">
<path d="M212.5,78.7c3.2-1,6.4-1.9,9.7-2.9c-0.2-2.5-0.5-4.5-0.7-6.7c-3.4-0.4-6.7-0.7-9.8-1c-0.5-2.3-1-4.3-1.6-6.3
	c2.8-1.9,5.5-3.7,8.2-5.6c-1.1-2.3-2-4.3-2.9-6.2c-3.4,0.8-6.4,1.6-9.4,2.3c-1.3-2-2.3-3.7-3.5-5.5c1.9-2.6,3.8-5.1,5.8-7.9
	c-1.7-1.8-3.3-3.4-4.9-5c-2.8,1.9-5.3,3.6-7.9,5.2c-1.8-1.3-3.4-2.8-5.2-4c1.1-3.1,1.9-6.1,2.8-9.2c-2.2-1.1-4-2-6.2-3.1
	c-2,2.6-3.8,5-5.7,7.4c-2.2-0.7-4.3-1.4-6.5-2.3v-9.3c-2.6-0.4-4.7-0.6-6.9-0.8c-1.2,3.2-2.2,5.8-2.9,8.6H158c-1.1-3-2-5.6-3.1-8.6
	c-2.3,0.4-4.4,0.8-6.9,1.2v9.2c-2.3,0.8-4.4,1.6-6.4,2.3c-1.9-2.5-3.7-4.6-5.6-7.1c-2.3,1.3-4.1,2.4-6.3,3.6c1.1,3.1,2,5.8,2.9,8.7
	c-1.8,1.4-3.4,2.8-5.1,4c-2.7-1.7-5.1-3.2-7.7-4.9c-1.7,1.8-3.2,3.6-4.7,5.3c2,2.5,3.8,4.9,5.6,7.3c-1.3,1.9-2.3,3.6-3.5,5.3
	c-2.9-0.7-5.7-1.3-8.9-2c-1,2.3-1.8,4.4-2.7,6.7c2.7,1.8,5.1,3.4,7.6,4.9c-0.5,2.3-1,4.3-1.4,6.3c-3.2,0.4-6.1,0.6-9.1,1
	c-0.2,2.6-0.4,4.9-0.6,7.1c3.3,0.8,6.2,1.7,9.1,2.5c0.1,2.2,0.2,4.1,0.4,6.2c-2.8,1.3-5.6,2.5-8.4,3.9c0.6,2.4,1.2,4.5,1.8,6.8
	c3.4-0.2,6.4-0.4,9.4-0.6c1,1.9,1.7,3.7,2.5,5.7c-2.3,2.2-4.5,4.3-6.9,6.5c1.4,2.2,2.7,3.9,4,5.8c3.1-1.3,5.9-2.5,8.8-3.7
	c1.6,1.7,2.8,3.1,4.1,4.5c-1.4,3-2.8,5.7-4.4,8.6c2,1.6,3.8,3,5.6,4.4c2.5-2.3,4.9-4.4,7.2-6.5c1.8,1,3.4,1.9,5.3,3
	c-0.5,3.2-1,6.4-1.4,9.8c2.3,0.7,4.5,1.4,6.7,2.2c1.7-3,3.3-5.8,4.9-8.7c2.2,0.5,4,0.7,5.9,1.1c0.7,3.5,1.3,6.5,1.9,9.8h6.9
	c0.7-3.5,1.3-6.7,1.9-9.9c2.2-0.4,4.1-0.6,6.1-0.8c1.7,3.1,3.2,5.7,4.9,8.7c2.3-0.8,4.4-1.6,6.5-2.4c-0.6-3.5-1.1-6.5-1.6-9.9
	c1.8-1,3.5-1.9,5.5-3c2.5,2.4,5,4.5,7.6,6.8c1.9-1.6,3.7-2.9,5.5-4.3c-1.7-3.1-3.2-5.9-4.9-8.9c1.6-1.6,2.8-3,4.4-4.6
	c3.1,1.3,6.1,2.6,9.2,4c1.3-2,2.5-3.9,3.8-5.8c-2.6-2.5-5-4.6-7.4-7c1-2,1.9-3.8,2.7-5.7c3.3,0.2,6.4,0.4,10,0.6
	c0.6-2.2,1.1-4.4,1.7-6.7c-3.2-1.4-6.1-2.6-9.1-4C212.2,83,212.3,80.9,212.5,78.7L212.5,78.7z M166.7,44.1
	c9.2,1.2,16.3,5.5,22.5,12.8c-4.5,2.5-8.9,5.1-13,7.5c-3.2-1.8-6.2-3.5-9.5-5.3V44.1L166.7,44.1z M157.8,44.4V59
	c-3.1,1.9-6.2,3.6-9.5,5.5c-4-2.3-8.3-4.9-12.7-7.4C140.2,50.1,150,44.6,157.8,44.4z M130.8,64.3c4.6,2.6,8.9,5.1,12.9,7.4v11.5
	c-4.1,2.4-8.4,4.9-13,7.6C127.1,81.9,127.4,73.5,130.8,64.3z M157.8,111.9c-9.5-1.3-16.8-5.7-23-13.6c4.5-2.5,8.8-5,12.8-7.4
	c3.4,2,6.7,3.9,10.2,6.1V111.9z M162.2,87.9c-5.5,0-9.7-4.5-9.7-10.1c0.1-5.3,4.4-9.7,9.8-9.5c5.3,0,9.6,4.3,9.6,9.7
	C172,83.3,167.5,87.9,162.2,87.9L162.2,87.9z M166.7,112.1v-15c3.3-2,6.5-3.9,10.2-6.1c3.8,2.3,8.2,4.7,12.8,7.4
	C183.7,106.1,176.3,110.5,166.7,112.1L166.7,112.1z M193.8,90.8c-4.5-2.6-8.9-5.2-13-7.6V71.7c3.8-2.3,8-4.6,12.7-7.4
	C197.2,73.2,197.2,81.8,193.8,90.8L193.8,90.8z"/>
</svg>
