<?xml version="1.0" encoding="utf-8"?>
<!-- Generator: Adobe Illustrator 21.0.0, SVG Export Plug-In . SVG Version: 6.00 Build 0)  -->
<svg version="1.1" id="Layer_1" xmlns="http://www.w3.org/2000/svg" xmlns:xlink="http://www.w3.org/1999/xlink" x="0px" y="0px"
	 viewBox="0 0 320 160" style="enable-background:new 0 0 320 160;" xml:space="preserve">
<style type="text/css">
	.st0{fill:none;stroke:#000000;stroke-width:6.7846;}
</style>
<g transform="translate(0 867.64)">
	<g transform="matrix(-.61905 0 0 .61905 923.68 -447.59)">
		<path class="st0" d="M1279.3-431.9h-234.4v-234.4h234.4"/>
		<path class="st0" d="M1333.4-522.1h90.1v90.1h-90.1"/>
		<path class="st0" d="M1333.4-486v54.1h-54.1V-486"/>
		<path class="st0" d="M1315.4-486h-36.1v-36.1h36.1"/>
		<path class="st0" d="M1315.4-504v-18h18v18"/>
		<path class="st0" d="M1315.4-504h18v18h-18V-504z"/>
		<path class="st0" d="M1333.4-504c0,4.8-1.9,9.4-5.3,12.7c-3.4,3.4-8,5.3-12.7,5.3"/>
		<path class="st0" d="M1333.4-504c0-4.8-1.9-9.4-5.3-12.7c-3.4-3.4-8-5.3-12.7-5.3"/>
		<path class="st0" d="M1279.3-486c0-9.6,3.8-18.7,10.6-25.5c6.8-6.8,15.9-10.6,25.5-10.6"/>
		<path class="st0" d="M1279.3-486c0,14.3,5.7,28.1,15.8,38.2c10.1,10.1,23.9,15.8,38.2,15.8"/>
		<path class="st0" d="M1423.5-522.1c0,23.9-9.5,46.8-26.4,63.7c-16.9,16.9-39.8,26.4-63.7,26.4"/>
		<path class="st0" d="M1423.5-522.1c0-38.3-15.2-74.9-42.2-102c-27.1-27.1-63.7-42.2-102-42.2"/>
		<path class="st0" d="M1044.9-431.9c0-62.2,24.7-121.8,68.6-165.7c44-44,103.6-68.6,165.7-68.6"/>
		<path class="st0" d="M1279.3-522.1v-144.2h144.2v144.2"/>
	</g>
</g>
</svg>
