<?xml version="1.0" encoding="UTF-8"?>
<svg version="1.1" viewBox="0 0 1080 1920" xmlns="http://www.w3.org/2000/svg">
 <g transform="translate(0 867.64)">
  <g transform="matrix(-.61905 0 0 .61905 923.68 -447.59)" fill="none" stroke="#000" stroke-width="6.7846">
   <path d="m399.94 425.88h-357.24v-357.24h357.24"/>
   <path d="m482.38 288.48h137.4v137.4h-137.4"/>
   <path d="m482.38 343.44v82.441h-82.441v-82.441"/>
   <path d="m454.9 343.44h-54.961v-54.961h54.961"/>
   <path d="m454.9 315.96v-27.48h27.48v27.48"/>
   <path d="m454.9 315.96h27.48v27.48h-27.48z"/>
   <path transform="rotate(-90)" d="m-315.96 482.38c-7.2882 0-14.278-2.8952-19.432-8.0488s-8.0488-12.143-8.0488-19.432"/>
   <path transform="matrix(0,1,1,0,0,0)" d="m315.96 482.38c-7.2882 0-14.278-2.8952-19.432-8.0488s-8.0488-12.143-8.0488-19.432"/>
   <path transform="rotate(90)" d="m343.44-399.94c-14.576 0-28.556-5.7905-38.863-16.098s-16.098-24.287-16.098-38.863"/>
   <path transform="matrix(0,-1,-1,0,0,0)" d="m-343.44-399.94c-21.865 0-42.834-8.6857-58.295-24.146-15.461-15.461-24.146-36.43-24.146-58.295"/>
   <path transform="rotate(-90)" d="m-288.48 619.78c-36.441 0-71.39-14.476-97.158-40.244s-40.244-60.717-40.244-97.158"/>
   <path transform="matrix(0,1,1,0,0,0)" d="m288.48 619.78c-58.306 0-114.22-23.162-155.45-64.391-41.229-41.229-64.391-97.146-64.391-155.45"/>
   <path transform="rotate(90)" d="m425.88-42.696c-94.747 3e-6 -185.61-37.638-252.61-104.63-66.996-66.996-104.63-157.86-104.63-252.61"/>
   <path d="m399.94 288.48v-219.84h219.84v219.84"/>
  </g>
 </g>
</svg>
