<?xml version="1.0" encoding="utf-8"?>
<!-- Generator: Adobe Illustrator 21.0.0, SVG Export Plug-In . SVG Version: 6.00 Build 0)  -->
<svg version="1.1" id="Layer_1" xmlns="http://www.w3.org/2000/svg" xmlns:xlink="http://www.w3.org/1999/xlink" x="0px" y="0px"
	 viewBox="0 0 320 160" style="enable-background:new 0 0 320 160;" xml:space="preserve">
<style type="text/css">
	.st0{fill:#FFFFFF;stroke:#000000;stroke-width:2;stroke-linecap:round;stroke-linejoin:round;}
</style>
<g transform="translate(-212.18 -383.05)">
	<path class="st0" d="M341.7,395.5l3.9,71.3l90.1,0.4l2.9-73.4L341.7,395.5z"/>
	<path class="st0" d="M440.2,464.7l-0.8,5.8h-95.2l-0.8-5.8H440.2z"/>
	<path class="st0" d="M323.2,530.9c-2.9,0.8-4.7-1.2-2.3-3l7.6-6.8c2.8-27.1,3.8-45.8,4.4-72.9l-15.7,21l0.6,6.2l-1.6,0.6l-1.9-1.9
		l-5.6,4.6c-2.3-0.5-3.8-1.5-4.5-4.3c1.8-2.8,3.2-3.9,6.1-6.3l23-38.4l17-2.1c5.6-0.6,26.7-6.5,26.7-6.5l11.5-4.5
		c0,0,1.5,0.6,0.9,1.7c-0.4,0.9-2.7,2.2-4.3,2.9c1.4,1.6,0.1,5.6-0.3,5.7l-7.5,0.6c0,0-26.2,13.6-26.2,14.6
		c2.2,27.8,2.9,50.2,7.3,78l8,9.4c2.1,2,1.8,3.1-0.5,3.4l-18.3-5.4l-4.4-45.2l-5.1,44.8L323.2,530.9z"/>
	<path class="st0" d="M351.1,416.3c0.5,4.4-0.6,9.2-4.1,12.5c-2.5,2.2-6.8,2.1-9.2-0.1c-3.6-2.8-5.1-7.4-5.3-11.8
		c-0.1-3.9,1.2-8.2,4.4-11c2.3-1.8,5.9-2,8.2-0.3C348.9,408,350.6,412.3,351.1,416.3L351.1,416.3z"/>
</g>
</svg>
